<svg width="34" height="34" viewBox="0 0 34 34" fill="none" xmlns="http://www.w3.org/2000/svg">
<path d="M6.8898 27.11C6.39188 26.6121 6.39188 25.8048 6.8898 25.3069L15.1966 17.0002L6.8898 8.69343C6.39188 8.19551 6.39188 7.38823 6.8898 6.89031C7.38771 6.3924 8.195 6.3924 8.69292 6.89031L16.9997 15.1971L25.3065 6.89031C25.8044 6.3924 26.6117 6.3924 27.1096 6.89031C27.6075 7.38823 27.6075 8.19551 27.1096 8.69343L18.8028 17.0002L27.1096 25.3069C27.6075 25.8048 27.6075 26.6121 27.1096 27.11C26.6117 27.608 25.8044 27.608 25.3065 27.11L16.9997 18.8033L8.69292 27.11C8.195 27.608 7.38771 27.608 6.8898 27.11Z" fill="#171719"/>
</svg>
