<svg width="53" height="60" viewBox="0 0 53 60" fill="none" xmlns="http://www.w3.org/2000/svg">
<path d="M11.285 1.344C13.205 1.344 14.165 2.784 14.165 4.256C14.165 10.784 8.693 14.08 2.037 14.496C1.397 14.528 0.725 13.984 0.693 13.408C0.597 12.896 1.141 12.096 1.813 12.064C7.157 11.648 11.381 9.408 11.605 4.896C11.605 4.192 11.573 3.712 10.069 3.712H1.941C1.461 3.712 0.917 3.104 0.917 2.528C0.917 1.952 1.429 1.344 1.973 1.344H11.285ZM22.549 1.984C22.709 3.456 22.805 5.088 22.805 6.784H25.429C25.909 6.784 26.517 7.296 26.517 7.968C26.517 8.544 26.005 9.152 25.461 9.152H22.805C22.773 10.848 22.677 12.512 22.549 13.92C22.517 14.56 21.749 15.008 21.109 14.944C20.437 14.912 19.925 14.368 19.957 13.696C20.277 9.76 20.245 6.208 19.957 2.208C19.925 1.536 20.405 1.056 21.077 0.959999C21.749 0.895998 22.453 1.28 22.549 1.984ZM19.765 18.784H6.069C5.653 18.784 5.525 19.104 5.493 19.328C5.333 20.544 5.269 22.304 5.525 23.552C5.557 23.68 5.621 23.744 5.781 23.808C6.805 24.224 10.389 24.576 13.077 24.576C15.797 24.576 18.581 24.416 20.085 23.84C20.245 23.776 20.309 23.712 20.341 23.456C20.565 22.24 20.533 20.512 20.373 19.328C20.341 19.104 20.213 18.784 19.765 18.784ZM21.109 26.08C18.805 26.816 15.701 26.976 12.821 27.008C9.909 27.008 6.389 26.752 4.725 26.08C3.957 25.76 3.253 25.248 3.061 24.32C2.741 22.848 2.837 19.872 3.061 18.208C3.157 17.312 3.893 16.448 4.725 16.448H21.141C21.973 16.448 22.709 17.312 22.805 18.208C23.029 19.872 23.125 22.848 22.805 24.32C22.613 25.216 21.941 25.824 21.109 26.08ZM41.2 5.28H35.952V9.408C35.952 16.224 33.232 20.64 28.72 22.976C28.144 23.264 27.344 23.104 27.024 22.528C26.64 21.984 26.832 21.088 27.408 20.8C31.44 18.592 33.328 15.36 33.328 9.376V5.28H28.4C27.888 5.28 27.344 4.672 27.344 4.096C27.344 3.52 27.856 2.912 28.368 2.912H41.168C41.648 2.912 42.256 3.424 42.256 4.096C42.256 4.672 41.744 5.28 41.2 5.28ZM38.16 15.68L42.64 20.896C43.088 21.408 42.928 22.208 42.416 22.624C41.936 23.072 41.072 23.072 40.624 22.528L36.112 17.312C35.76 16.864 35.76 16.096 36.336 15.616C36.848 15.168 37.712 15.136 38.16 15.68ZM51.888 12.992H48.816C48.784 17.952 48.624 22.912 48.464 24.704C48.368 25.344 47.664 25.792 47.024 25.728C46.352 25.696 45.84 25.152 45.872 24.48C46.288 19.584 46.352 7.232 45.872 2.208C45.776 1.536 46.32 1.056 46.992 0.959999C47.664 0.895998 48.368 1.28 48.464 1.984C48.688 3.68 48.816 7.008 48.816 10.624H51.856C52.336 10.624 52.944 11.136 52.944 11.808C52.944 12.384 52.432 12.992 51.888 12.992ZM4.75763 35.712C4.56563 37.792 4.18163 48.192 4.56563 51.424C4.62963 51.808 4.69363 52.064 4.94963 52.224C5.87763 52.736 7.09363 52.96 8.30963 52.96C10.4216 52.96 12.0216 52.48 12.8536 52.096C13.3016 51.904 14.2616 52.16 14.4536 52.928C14.6136 53.568 14.1336 54.112 13.6856 54.304C12.2456 55.008 10.2936 55.328 8.11763 55.328C6.26163 55.328 4.85363 54.912 3.82963 54.432C3.12563 54.048 2.38963 53.632 2.19763 52.672C1.71763 50.112 1.94163 37.792 2.26163 35.488C2.35763 34.912 2.96563 34.464 3.73363 34.592C4.56563 34.688 4.78963 35.328 4.75763 35.712ZM16.2776 45.248H11.6056C11.0936 45.248 10.5496 44.64 10.5496 44.064C10.5496 43.488 11.0616 42.88 11.6056 42.88H16.2776C16.2456 39.52 16.1496 36.384 15.9576 34.368C15.8616 33.696 16.4056 33.216 17.0776 33.12C17.7496 33.056 18.4536 33.44 18.5496 34.144C19.1576 38.432 18.9016 53.088 18.5496 56.544C18.4536 57.184 17.7496 57.632 17.1096 57.568C16.4376 57.536 15.9256 56.992 15.9576 56.32C16.1816 53.856 16.2776 49.536 16.2776 45.248ZM23.9896 33.984C24.5976 38.272 24.3416 53.248 23.9896 56.704C23.8936 57.344 23.1896 57.792 22.5496 57.728C21.8776 57.696 21.3656 57.152 21.3976 56.48C21.8136 51.584 21.8776 39.232 21.3976 34.208C21.3016 33.536 21.8456 33.056 22.5176 32.96C23.1896 32.896 23.8936 33.28 23.9896 33.984ZM38.8006 33.344C40.7206 33.344 41.6806 34.784 41.6806 36.224C41.6806 42.752 35.9206 47.04 29.2326 47.456C28.5926 47.488 27.9206 46.944 27.8886 46.368C27.7926 45.856 28.3366 45.056 29.0086 45.024C34.1926 44.736 38.8966 41.408 39.1206 36.896C39.1206 36.192 39.0886 35.712 37.5526 35.712H29.1366C28.6566 35.712 28.1126 35.104 28.1126 34.528C28.1126 33.952 28.6246 33.344 29.1686 33.344H38.8006ZM35.9206 41.216H29.0086C28.4966 41.216 27.9526 40.608 27.9526 40.032C27.9526 39.456 28.4646 38.848 29.0086 38.848H35.8886C36.3686 38.848 36.9766 39.36 36.9766 40.032C36.9766 40.608 36.4646 41.216 35.9206 41.216ZM50.5126 33.984C50.9286 37.536 50.8326 44 50.5126 47.52C50.4806 48.16 49.7126 48.608 49.0726 48.544C48.4006 48.512 47.8886 47.968 47.9206 47.296C48.0486 45.504 48.1446 43.424 48.1446 41.312H44.2086C43.6966 41.312 43.1526 40.704 43.1526 40.128C43.1526 39.552 43.6646 38.944 44.2086 38.944H48.1126C48.0806 37.312 48.0166 35.68 47.9206 34.208C47.8886 33.536 48.3686 33.056 49.0406 32.96C49.7126 32.896 50.4166 33.28 50.5126 33.984ZM31.9526 58.976C31.3126 59.104 30.5766 58.88 30.3846 58.176C30.2246 57.6 30.5126 56.8 31.1846 56.608C36.3046 55.168 40.0486 52.384 40.0486 49.248V49.024C40.0486 48.576 40.5606 47.968 41.2966 47.968C42.0006 47.968 42.6726 48.48 42.6726 49.024V49.44C42.6726 53.824 37.3606 57.824 31.9526 58.976ZM44.6246 53.024L51.1846 56.512C51.6966 56.768 52.0166 57.632 51.6326 58.24C51.2166 59.008 50.2566 58.912 49.7766 58.624L43.2486 55.168C42.7686 54.944 42.4486 54.208 42.8006 53.504C43.1846 52.736 44.1446 52.8 44.6246 53.024Z" fill="black"/>
</svg>
