<svg width="167" height="124" viewBox="0 0 167 124" fill="none" xmlns="http://www.w3.org/2000/svg">
<path d="M90.9695 72L89.527 72.4115L90.9695 72ZM166.299 2.6943C166.683 1.95996 166.398 1.05381 165.664 0.670354C164.929 0.286894 164.023 0.571338 163.64 1.30568L164.97 1.99999L166.299 2.6943ZM1.46973 122C2.54145 123.049 2.54145 123.049 2.54144 123.049C2.54144 123.049 2.54144 123.049 2.54144 123.049C2.54143 123.049 2.54143 123.049 2.54144 123.049C2.54145 123.049 2.54147 123.049 2.54151 123.049C2.54159 123.049 2.54172 123.049 2.5419 123.049C2.54228 123.049 2.54287 123.048 2.54369 123.047C2.54533 123.046 2.54786 123.043 2.55127 123.039C2.55809 123.033 2.56846 123.022 2.58231 123.008C2.61002 122.98 2.65169 122.937 2.70697 122.881C2.81752 122.769 2.9825 122.602 3.199 122.384L2.1348 121.327L1.0706 120.27C0.85143 120.491 0.683866 120.66 0.570804 120.775C0.514273 120.832 0.471366 120.876 0.442446 120.905C0.427984 120.92 0.41702 120.931 0.409599 120.939C0.405887 120.942 0.40306 120.945 0.401126 120.947C0.400158 120.948 0.399413 120.949 0.398893 120.95C0.398631 120.95 0.398426 120.95 0.398279 120.95C0.398204 120.95 0.398143 120.95 0.398097 120.95C0.398074 120.95 0.398054 120.95 0.398038 120.95C0.39803 120.95 0.398021 120.951 0.398016 120.951C0.398008 120.951 0.398 120.951 1.46973 122ZM3.58855 119.874L4.64589 120.938C5.06711 120.519 5.5471 120.044 6.08182 119.518L5.02967 118.449L3.97752 117.38C3.43921 117.909 2.95574 118.388 2.5312 118.81L3.58855 119.874ZM6.4558 117.051L7.50338 118.125C7.9525 117.687 8.42843 117.224 8.92966 116.739L7.88637 115.661L6.84308 114.583C6.33891 115.071 5.86012 115.537 5.40822 115.978L6.4558 117.051ZM9.35591 114.244L10.395 115.326C10.8607 114.879 11.3438 114.416 11.8432 113.94L10.8082 112.854L9.77327 111.769C9.27106 112.247 8.78528 112.712 8.31686 113.162L9.35591 114.244ZM12.2682 111.468L13.2991 112.558C13.7782 112.104 14.2701 111.641 14.7739 111.168L13.7471 110.074L12.7204 108.981C12.2138 109.456 11.7192 109.923 11.2373 110.378L12.2682 111.468ZM15.2101 108.706L16.2327 109.803C16.7182 109.351 17.2133 108.891 17.7174 108.425L16.6989 107.323L15.6805 106.222C15.1735 106.691 14.6756 107.153 14.1874 107.608L15.2101 108.706ZM18.1753 105.963L19.1895 107.068C19.6783 106.62 20.1747 106.166 20.6781 105.708L19.6682 104.598L18.6583 103.489C18.1519 103.95 17.6527 104.407 17.161 104.858L18.1753 105.963ZM21.1633 103.242L22.1688 104.356C22.6602 103.912 23.1575 103.464 23.6605 103.014L22.6596 101.896L21.6587 100.779C21.1526 101.233 20.6522 101.683 20.1579 102.129L21.1633 103.242ZM24.1747 100.545L25.1709 101.666C25.6651 101.227 26.164 100.786 26.6675 100.343L25.6761 99.2169L24.6848 98.0912C24.1781 98.5374 23.6759 98.9816 23.1786 99.4234L24.1747 100.545ZM27.2045 97.8771L28.1908 99.0073C28.6901 98.5715 29.1933 98.1344 29.7001 97.6962L28.719 96.5615L27.738 95.4268C27.2276 95.8681 26.721 96.3082 26.2183 96.7469L27.2045 97.8771ZM30.2503 95.2439L31.2259 96.3833C31.7336 95.9487 32.2443 95.5135 32.758 95.0781L31.7881 93.9338L30.8182 92.7896C30.3007 93.2283 29.7861 93.6667 29.2747 94.1045L30.2503 95.2439ZM33.3273 92.6359L34.2913 93.7851C34.805 93.3543 35.3212 92.9236 35.8396 92.4936L34.8819 91.3391L33.9242 90.1847C33.4015 90.6182 32.8811 91.0524 32.3634 91.4866L33.3273 92.6359ZM36.4348 90.0582L37.3859 91.2181C37.9032 90.7939 38.4224 90.3707 38.943 89.9489L37.9988 88.7834L37.0545 87.6179C36.5291 88.0435 36.0054 88.4705 35.4836 88.8984L36.4348 90.0582ZM39.5715 87.5173L40.5084 88.6887C41.0312 88.2705 41.5552 87.8541 42.0802 87.4399L41.151 86.2623L40.2218 85.0848C39.6916 85.5032 39.1624 85.9237 38.6345 86.3459L39.5715 87.5173ZM42.7367 85.02L43.6576 86.2039C44.1879 85.7915 44.7188 85.3816 45.25 84.9747L44.3378 83.7839L43.4256 82.5931C42.8884 83.0047 42.3516 83.4191 41.8157 83.836L42.7367 85.02ZM45.9419 82.565L46.8447 83.7629C47.3804 83.3591 47.9162 82.9587 48.4517 82.5622L47.559 81.3568L46.6663 80.1513C46.1239 80.553 45.5814 80.9584 45.0391 81.3671L45.9419 82.565ZM49.1883 80.1613L50.0701 81.3748C50.6095 80.9828 51.1482 80.5951 51.686 80.2122L50.8158 78.9903L49.9457 77.7685C49.3999 78.1572 48.8533 78.5505 48.3065 78.9479L49.1883 80.1613ZM52.4775 77.8199L53.3347 79.0508C53.8831 78.6689 54.4301 78.2924 54.9754 77.9217L54.132 76.6812L53.2887 75.4407C52.7338 75.818 52.1775 76.2009 51.6202 76.589L52.4775 77.8199ZM55.8132 75.5532L56.6412 76.804C57.2011 76.4333 57.7588 76.0694 58.3138 75.7127L57.5028 74.4508L56.6919 73.189C56.125 73.5533 55.556 73.9246 54.9853 74.3023L55.8132 75.5532ZM59.2024 73.376L59.9946 74.6497C60.5682 74.293 61.1385 73.9446 61.705 73.6052L60.9341 72.3185L60.1631 71.0317C59.5818 71.3801 58.9973 71.7371 58.4102 72.1022L59.2024 73.376ZM62.6559 71.3077L63.4032 72.6083C63.9924 72.2697 64.5768 71.9418 65.1559 71.6251L64.4362 70.309L63.7164 68.993C63.1179 69.3203 62.5151 69.6586 61.9086 70.0071L62.6559 71.3077ZM66.1896 69.3759L66.8785 70.7083C67.4844 70.3951 68.0835 70.0954 68.6751 69.81L68.0235 68.459L67.3718 67.1079C66.7538 67.406 66.1299 67.7181 65.5007 68.0434L66.1896 69.3759ZM69.8247 67.6237L70.4338 68.9945C71.0556 68.7183 71.6676 68.4597 72.269 68.2196L71.7129 66.8265L71.1568 65.4334C70.5175 65.6886 69.8701 65.9622 69.2157 66.2529L69.8247 67.6237ZM73.5846 66.1262L74.0774 67.543C74.7097 67.323 75.3276 67.1264 75.9302 66.9541L75.5177 65.5119L75.1052 64.0698C74.4443 64.2588 73.7728 64.4726 73.0918 64.7095L73.5846 66.1262ZM77.4807 65.0218L77.7904 66.4895C78.4218 66.3562 79.0311 66.2544 79.6173 66.1845L79.4397 64.6951L79.2621 63.2056C78.5789 63.2871 77.8812 63.4042 77.171 63.5541L77.4807 65.0218ZM81.471 64.5705L81.4681 66.0705C82.097 66.0717 82.6886 66.118 83.2429 66.2084L83.4845 64.728L83.726 63.2475C82.9979 63.1287 82.2456 63.072 81.474 63.0705L81.471 64.5705ZM85.4198 65.244L84.8811 66.644C85.4027 66.8447 85.8845 67.0988 86.328 67.4084L87.1867 66.1786L88.0455 64.9487C87.3948 64.4944 86.6967 64.1282 85.9584 63.8441L85.4198 65.244ZM88.6794 67.5247L87.5479 68.5095C87.8995 68.9134 88.2258 69.3793 88.5223 69.9148L89.8346 69.1883L91.1469 68.4618C90.7553 67.7544 90.3099 67.1133 89.8109 66.5399L88.6794 67.5247ZM90.6439 70.9887L89.2331 71.4983C89.3378 71.7881 89.4359 72.0923 89.527 72.4115L90.9695 72L92.4119 71.5884C92.3028 71.2063 92.1838 70.8365 92.0547 70.479L90.6439 70.9887ZM90.9695 72L89.527 72.4115C89.6325 72.7812 89.7411 73.1417 89.8529 73.4932L91.2824 73.0387L92.7119 72.5842C92.6095 72.2622 92.5095 71.9304 92.4119 71.5884L90.9695 72ZM91.9574 74.9468L90.5616 75.4963C90.8351 76.1909 91.1242 76.8443 91.4292 77.4568L92.772 76.7882L94.1147 76.1196C93.8518 75.5915 93.5975 75.0183 93.3532 74.3974L91.9574 74.9468ZM93.7563 78.5206L92.4992 79.339C92.9346 80.0079 93.3981 80.6134 93.8905 81.1544L94.9998 80.1448L96.1092 79.1352C95.7359 78.725 95.3696 78.2495 95.0134 77.7023L93.7563 78.5206ZM96.4837 81.4767L95.6106 82.6964C96.2754 83.1722 96.9764 83.5492 97.7103 83.8275L98.2422 82.425L98.7741 81.0224C98.2902 80.8389 97.8176 80.5868 97.3567 80.2569L96.4837 81.4767ZM100.212 82.8795L100.07 84.3728C100.841 84.4461 101.623 84.4258 102.411 84.3236L102.218 82.836L102.025 81.3485C101.438 81.4246 100.882 81.4364 100.354 81.3863L100.212 82.8795ZM104.172 82.4044L104.611 83.8385C105.297 83.6283 105.988 83.3645 106.681 83.0529L106.066 81.6847L105.451 80.3165C104.859 80.5828 104.285 80.8007 103.732 80.9702L104.172 82.4044ZM107.887 80.7564L108.627 82.0611C109.218 81.7263 109.812 81.3596 110.409 80.9637L109.58 79.7135L108.751 78.4633C108.207 78.8244 107.672 79.1541 107.147 79.4516L107.887 80.7564ZM111.259 78.5285L112.157 79.7299C112.694 79.3281 113.235 78.9042 113.777 78.4597L112.827 77.2991L111.877 76.1385C111.366 76.5571 110.86 76.9536 110.36 77.327L111.259 78.5285ZM114.385 75.9728L115.378 77.097C115.88 76.6535 116.384 76.1934 116.89 75.7179L115.863 74.6248L114.836 73.5316C114.351 73.9874 113.869 74.4267 113.392 74.8486L114.385 75.9728ZM117.337 73.2012L118.393 74.2663C118.867 73.7966 119.342 73.3142 119.818 72.82L118.738 71.7791L117.658 70.7382C117.196 71.217 116.737 71.6832 116.281 72.1361L117.337 73.2012ZM120.149 70.2837L121.25 71.3022C121.702 70.8139 122.155 70.3156 122.608 69.8079L121.489 68.8089L120.37 67.8099C119.928 68.305 119.487 68.7903 119.048 69.2652L120.149 70.2837ZM122.832 67.2801L123.966 68.2611C124.407 67.7512 124.848 67.2332 125.29 66.7075L124.141 65.7429L122.992 64.7783C122.56 65.2935 122.128 65.8006 121.697 66.2992L122.832 67.2801ZM125.428 64.1897L126.589 65.1394C127.02 64.612 127.452 64.0778 127.883 63.5375L126.711 62.6018L125.538 61.6661C125.114 62.1974 124.69 62.7223 124.267 63.2401L125.428 64.1897ZM127.953 61.028L129.135 61.951C129.552 61.4167 129.969 60.8771 130.385 60.3326L129.194 59.4215L128.002 58.5105C127.592 59.0472 127.181 59.5788 126.77 60.1049L127.953 61.028ZM130.415 57.8087L131.615 58.7087C132.019 58.1695 132.423 57.6262 132.826 57.0792L131.618 56.1896L130.41 55.2999C130.012 55.8402 129.614 56.3766 129.215 56.9087L130.415 57.8087ZM132.817 54.5479L134.032 55.4278C134.427 54.882 134.822 54.3331 135.215 53.7815L133.993 52.9108L132.772 52.0401C132.383 52.5857 131.993 53.1285 131.602 53.668L132.817 54.5479ZM135.161 51.2598L136.389 52.1219C136.779 51.5671 137.167 51.01 137.554 50.4512L136.32 49.5974L135.087 48.7436C134.704 49.2971 134.32 49.8486 133.934 50.3978L135.161 51.2598ZM137.465 47.9325L138.704 48.7786C139.086 48.2195 139.466 47.6591 139.844 47.0978L138.601 46.2592L137.357 45.4206C136.982 45.9771 136.605 46.5325 136.227 47.0865L137.465 47.9325ZM139.728 44.5775L140.976 45.4091C141.352 44.8447 141.726 44.2799 142.098 43.715L140.845 42.8902L139.592 42.0655C139.223 42.626 138.852 43.1863 138.479 43.746L139.728 44.5775ZM141.95 41.2022L143.207 42.0205C143.578 41.45 143.947 40.8799 144.314 40.3106L143.053 39.4986L141.792 38.6866C141.428 39.2518 141.061 39.8177 140.693 40.384L141.95 41.2022ZM144.143 37.7959L145.408 38.602C145.772 38.0314 146.133 37.4621 146.491 36.8946L145.222 36.0943L143.953 35.294C143.598 35.8578 143.239 36.4232 142.878 36.9899L144.143 37.7959ZM146.304 34.3705L147.576 35.1652C147.935 34.5908 148.291 34.0188 148.643 33.4495L147.367 32.6602L146.092 31.871C145.742 32.4367 145.388 33.0052 145.032 33.5759L146.304 34.3705ZM148.43 30.934L149.709 31.718C150.066 31.1355 150.42 30.5566 150.769 29.9817L149.487 29.2028L148.205 28.4239C147.858 28.9955 147.507 29.571 147.152 30.1499L148.43 30.934ZM150.522 27.4919L151.807 28.2658C152.164 27.673 152.517 27.0851 152.864 26.5028L151.576 25.7338L150.289 24.9648C149.943 25.5438 149.592 26.1284 149.237 26.7179L150.522 27.4919ZM152.602 24.0092L153.893 24.7735C154.244 24.1805 154.589 23.5941 154.929 23.0152L153.636 22.2556L152.343 21.496C152.004 22.0719 151.661 22.6551 151.311 23.2449L152.602 24.0092ZM154.656 20.5109L155.953 21.2659C156.298 20.6736 156.636 20.0904 156.967 19.5169L155.668 18.7665L154.37 18.016C154.04 18.5866 153.703 19.1668 153.36 19.756L154.656 20.5109ZM156.684 17.0021L157.985 17.7479C158.326 17.153 158.659 16.5703 158.982 16.001L157.678 15.2597L156.374 14.5183C156.052 15.0847 155.721 15.6643 155.382 16.2563L156.684 17.0021ZM158.684 13.4835L159.99 14.2203C160.332 13.6142 160.662 13.0262 160.98 12.4579L159.671 11.7258L158.362 10.9936C158.046 11.559 157.717 12.1438 157.377 12.7468L158.684 13.4835ZM160.652 9.9648L161.963 10.6922C162.314 10.0603 162.646 9.45915 162.958 8.89119L161.643 8.1688L160.328 7.44641C160.018 8.01112 159.688 8.60895 159.34 9.23739L160.652 9.9648ZM162.605 6.40965L163.923 7.12678C164.279 6.47236 164.598 5.88177 164.879 5.36091L163.558 4.64972L162.237 3.93852C161.959 4.45556 161.642 5.0422 161.288 5.69253L162.605 6.40965ZM164.537 2.81994L165.862 3.52304C166.005 3.2538 166.114 3.04731 166.187 2.90778C166.224 2.83801 166.252 2.78499 166.27 2.74924C166.28 2.73136 166.287 2.7178 166.292 2.70862C166.294 2.70403 166.296 2.70054 166.297 2.69815C166.298 2.69695 166.298 2.69604 166.299 2.69539C166.299 2.69507 166.299 2.69482 166.299 2.69464C166.299 2.69455 166.299 2.69447 166.299 2.69442C166.299 2.69439 166.299 2.69437 166.299 2.69435C166.299 2.69433 166.299 2.69432 166.299 2.69432C166.299 2.69431 166.299 2.6943 164.97 1.99999C163.64 1.30568 163.64 1.30567 163.64 1.30566C163.64 1.30566 163.64 1.30566 163.64 1.30566C163.64 1.30566 163.64 1.30566 163.64 1.30566C163.64 1.30568 163.64 1.30571 163.64 1.30575C163.64 1.30585 163.64 1.30601 163.64 1.30625C163.639 1.30672 163.639 1.30746 163.638 1.30848C163.637 1.31052 163.636 1.31366 163.633 1.3179C163.629 1.32638 163.622 1.33923 163.613 1.3564C163.595 1.39073 163.568 1.44231 163.532 1.51061C163.46 1.64721 163.353 1.85069 163.212 2.11683L164.537 2.81994ZM90.9695 72L89.527 72.4115L90.9695 72ZM166.299 2.6943C166.683 1.95996 166.398 1.05381 165.664 0.670354C164.929 0.286894 164.023 0.571338 163.64 1.30568L164.97 1.99999L166.299 2.6943ZM1.46973 122C2.54145 123.049 2.54145 123.049 2.54144 123.049C2.54144 123.049 2.54144 123.049 2.54144 123.049C2.54143 123.049 2.54143 123.049 2.54144 123.049C2.54145 123.049 2.54147 123.049 2.54151 123.049C2.54159 123.049 2.54172 123.049 2.5419 123.049C2.54228 123.049 2.54287 123.048 2.54369 123.047C2.54533 123.046 2.54786 123.043 2.55127 123.039C2.55809 123.033 2.56846 123.022 2.58231 123.008C2.61002 122.98 2.65169 122.937 2.70697 122.881C2.81752 122.769 2.9825 122.602 3.199 122.384L2.1348 121.327L1.0706 120.27C0.85143 120.491 0.683866 120.66 0.570804 120.775C0.514273 120.832 0.471366 120.876 0.442446 120.905C0.427984 120.92 0.41702 120.931 0.409599 120.939C0.405887 120.942 0.40306 120.945 0.401126 120.947C0.400158 120.948 0.399413 120.949 0.398893 120.95C0.398631 120.95 0.398426 120.95 0.398279 120.95C0.398204 120.95 0.398143 120.95 0.398097 120.95C0.398074 120.95 0.398054 120.95 0.398038 120.95C0.39803 120.95 0.398021 120.951 0.398016 120.951C0.398008 120.951 0.398 120.951 1.46973 122ZM3.58855 119.874L4.64589 120.938C5.06711 120.519 5.5471 120.044 6.08182 119.518L5.02967 118.449L3.97752 117.38C3.43921 117.909 2.95574 118.388 2.5312 118.81L3.58855 119.874ZM6.4558 117.051L7.50338 118.125C7.9525 117.687 8.42843 117.224 8.92966 116.739L7.88637 115.661L6.84308 114.583C6.33891 115.071 5.86012 115.537 5.40822 115.978L6.4558 117.051ZM9.35591 114.244L10.395 115.326C10.8607 114.879 11.3438 114.416 11.8432 113.94L10.8082 112.854L9.77327 111.769C9.27106 112.247 8.78528 112.712 8.31686 113.162L9.35591 114.244ZM12.2682 111.468L13.2991 112.558C13.7782 112.104 14.2701 111.641 14.7739 111.168L13.7471 110.074L12.7204 108.981C12.2138 109.456 11.7192 109.923 11.2373 110.378L12.2682 111.468ZM15.2101 108.706L16.2327 109.803C16.7182 109.351 17.2133 108.891 17.7174 108.425L16.6989 107.323L15.6805 106.222C15.1735 106.691 14.6756 107.153 14.1874 107.608L15.2101 108.706ZM18.1753 105.963L19.1895 107.068C19.6783 106.62 20.1747 106.166 20.6781 105.708L19.6682 104.598L18.6583 103.489C18.1519 103.95 17.6527 104.407 17.161 104.858L18.1753 105.963ZM21.1633 103.242L22.1688 104.356C22.6602 103.912 23.1575 103.464 23.6605 103.014L22.6596 101.896L21.6587 100.779C21.1526 101.233 20.6522 101.683 20.1579 102.129L21.1633 103.242ZM24.1747 100.545L25.1709 101.666C25.6651 101.227 26.164 100.786 26.6675 100.343L25.6761 99.2169L24.6848 98.0912C24.1781 98.5374 23.6759 98.9816 23.1786 99.4234L24.1747 100.545ZM27.2045 97.8771L28.1908 99.0073C28.6901 98.5715 29.1933 98.1344 29.7001 97.6962L28.719 96.5615L27.738 95.4268C27.2276 95.8681 26.721 96.3082 26.2183 96.7469L27.2045 97.8771ZM30.2503 95.2439L31.2259 96.3833C31.7336 95.9487 32.2443 95.5135 32.758 95.0781L31.7881 93.9338L30.8182 92.7896C30.3007 93.2283 29.7861 93.6667 29.2747 94.1045L30.2503 95.2439ZM33.3273 92.6359L34.2913 93.7851C34.805 93.3543 35.3212 92.9236 35.8396 92.4936L34.8819 91.3391L33.9242 90.1847C33.4015 90.6182 32.8811 91.0524 32.3634 91.4866L33.3273 92.6359ZM36.4348 90.0582L37.3859 91.2181C37.9032 90.7939 38.4224 90.3707 38.943 89.9489L37.9988 88.7834L37.0545 87.6179C36.5291 88.0435 36.0054 88.4705 35.4836 88.8984L36.4348 90.0582ZM39.5715 87.5173L40.5084 88.6887C41.0312 88.2705 41.5552 87.8541 42.0802 87.4399L41.151 86.2623L40.2218 85.0848C39.6916 85.5032 39.1624 85.9237 38.6345 86.3459L39.5715 87.5173ZM42.7367 85.02L43.6576 86.2039C44.1879 85.7915 44.7188 85.3816 45.25 84.9747L44.3378 83.7839L43.4256 82.5931C42.8884 83.0047 42.3516 83.4191 41.8157 83.836L42.7367 85.02ZM45.9419 82.565L46.8447 83.7629C47.3804 83.3591 47.9162 82.9587 48.4517 82.5622L47.559 81.3568L46.6663 80.1513C46.1239 80.553 45.5814 80.9584 45.0391 81.3671L45.9419 82.565ZM49.1883 80.1613L50.0701 81.3748C50.6095 80.9828 51.1482 80.5951 51.686 80.2122L50.8158 78.9903L49.9457 77.7685C49.3999 78.1572 48.8533 78.5505 48.3065 78.9479L49.1883 80.1613ZM52.4775 77.8199L53.3347 79.0508C53.8831 78.6689 54.4301 78.2924 54.9754 77.9217L54.132 76.6812L53.2887 75.4407C52.7338 75.818 52.1775 76.2009 51.6202 76.589L52.4775 77.8199ZM55.8132 75.5532L56.6412 76.804C57.2011 76.4333 57.7588 76.0694 58.3138 75.7127L57.5028 74.4508L56.6919 73.189C56.125 73.5533 55.556 73.9246 54.9853 74.3023L55.8132 75.5532ZM59.2024 73.376L59.9946 74.6497C60.5682 74.293 61.1385 73.9446 61.705 73.6052L60.9341 72.3185L60.1631 71.0317C59.5818 71.3801 58.9973 71.7371 58.4102 72.1022L59.2024 73.376ZM62.6559 71.3077L63.4032 72.6083C63.9924 72.2697 64.5768 71.9418 65.1559 71.6251L64.4362 70.309L63.7164 68.993C63.1179 69.3203 62.5151 69.6586 61.9086 70.0071L62.6559 71.3077ZM66.1896 69.3759L66.8785 70.7083C67.4844 70.3951 68.0835 70.0954 68.6751 69.81L68.0235 68.459L67.3718 67.1079C66.7538 67.406 66.1299 67.7181 65.5007 68.0434L66.1896 69.3759ZM69.8247 67.6237L70.4338 68.9945C71.0556 68.7183 71.6676 68.4597 72.269 68.2196L71.7129 66.8265L71.1568 65.4334C70.5175 65.6886 69.8701 65.9622 69.2157 66.2529L69.8247 67.6237ZM73.5846 66.1262L74.0774 67.543C74.7097 67.323 75.3276 67.1264 75.9302 66.9541L75.5177 65.5119L75.1052 64.0698C74.4443 64.2588 73.7728 64.4726 73.0918 64.7095L73.5846 66.1262ZM77.4807 65.0218L77.7904 66.4895C78.4218 66.3562 79.0311 66.2544 79.6173 66.1845L79.4397 64.6951L79.2621 63.2056C78.5789 63.2871 77.8812 63.4042 77.171 63.5541L77.4807 65.0218ZM81.471 64.5705L81.4681 66.0705C82.097 66.0717 82.6886 66.118 83.2429 66.2084L83.4845 64.728L83.726 63.2475C82.9979 63.1287 82.2456 63.072 81.474 63.0705L81.471 64.5705ZM85.4198 65.244L84.8811 66.644C85.4027 66.8447 85.8845 67.0988 86.328 67.4084L87.1867 66.1786L88.0455 64.9487C87.3948 64.4944 86.6967 64.1282 85.9584 63.8441L85.4198 65.244ZM88.6794 67.5247L87.5479 68.5095C87.8995 68.9134 88.2258 69.3793 88.5223 69.9148L89.8346 69.1883L91.1469 68.4618C90.7553 67.7544 90.3099 67.1133 89.8109 66.5399L88.6794 67.5247ZM90.6439 70.9887L89.2331 71.4983C89.3378 71.7881 89.4359 72.0923 89.527 72.4115L90.9695 72L92.4119 71.5884C92.3028 71.2063 92.1838 70.8365 92.0547 70.479L90.6439 70.9887ZM90.9695 72L89.527 72.4115C89.6325 72.7812 89.7411 73.1417 89.8529 73.4932L91.2824 73.0387L92.7119 72.5842C92.6095 72.2622 92.5095 71.9304 92.4119 71.5884L90.9695 72ZM91.9574 74.9468L90.5616 75.4963C90.8351 76.1909 91.1242 76.8443 91.4292 77.4568L92.772 76.7882L94.1147 76.1196C93.8518 75.5915 93.5975 75.0183 93.3532 74.3974L91.9574 74.9468ZM93.7563 78.5206L92.4992 79.339C92.9346 80.0079 93.3981 80.6134 93.8905 81.1544L94.9998 80.1448L96.1092 79.1352C95.7359 78.725 95.3696 78.2495 95.0134 77.7023L93.7563 78.5206ZM96.4837 81.4767L95.6106 82.6964C96.2754 83.1722 96.9764 83.5492 97.7103 83.8275L98.2422 82.425L98.7741 81.0224C98.2902 80.8389 97.8176 80.5868 97.3567 80.2569L96.4837 81.4767ZM100.212 82.8795L100.07 84.3728C100.841 84.4461 101.623 84.4258 102.411 84.3236L102.218 82.836L102.025 81.3485C101.438 81.4246 100.882 81.4364 100.354 81.3863L100.212 82.8795ZM104.172 82.4044L104.611 83.8385C105.297 83.6283 105.988 83.3645 106.681 83.0529L106.066 81.6847L105.451 80.3165C104.859 80.5828 104.285 80.8007 103.732 80.9702L104.172 82.4044ZM107.887 80.7564L108.627 82.0611C109.218 81.7263 109.812 81.3596 110.409 80.9637L109.58 79.7135L108.751 78.4633C108.207 78.8244 107.672 79.1541 107.147 79.4516L107.887 80.7564ZM111.259 78.5285L112.157 79.7299C112.694 79.3281 113.235 78.9042 113.777 78.4597L112.827 77.2991L111.877 76.1385C111.366 76.5571 110.86 76.9536 110.36 77.327L111.259 78.5285ZM114.385 75.9728L115.378 77.097C115.88 76.6535 116.384 76.1934 116.89 75.7179L115.863 74.6248L114.836 73.5316C114.351 73.9874 113.869 74.4267 113.392 74.8486L114.385 75.9728ZM117.337 73.2012L118.393 74.2663C118.867 73.7966 119.342 73.3142 119.818 72.82L118.738 71.7791L117.658 70.7382C117.196 71.217 116.737 71.6832 116.281 72.1361L117.337 73.2012ZM120.149 70.2837L121.25 71.3022C121.702 70.8139 122.155 70.3156 122.608 69.8079L121.489 68.8089L120.37 67.8099C119.928 68.305 119.487 68.7903 119.048 69.2652L120.149 70.2837ZM122.832 67.2801L123.966 68.2611C124.407 67.7512 124.848 67.2332 125.29 66.7075L124.141 65.7429L122.992 64.7783C122.56 65.2935 122.128 65.8006 121.697 66.2992L122.832 67.2801ZM125.428 64.1897L126.589 65.1394C127.02 64.612 127.452 64.0778 127.883 63.5375L126.711 62.6018L125.538 61.6661C125.114 62.1974 124.69 62.7223 124.267 63.2401L125.428 64.1897ZM127.953 61.028L129.135 61.951C129.552 61.4167 129.969 60.8771 130.385 60.3326L129.194 59.4215L128.002 58.5105C127.592 59.0472 127.181 59.5788 126.77 60.1049L127.953 61.028ZM130.415 57.8087L131.615 58.7087C132.019 58.1695 132.423 57.6262 132.826 57.0792L131.618 56.1896L130.41 55.2999C130.012 55.8402 129.614 56.3766 129.215 56.9087L130.415 57.8087ZM132.817 54.5479L134.032 55.4278C134.427 54.882 134.822 54.3331 135.215 53.7815L133.993 52.9108L132.772 52.0401C132.383 52.5857 131.993 53.1285 131.602 53.668L132.817 54.5479ZM135.161 51.2598L136.389 52.1219C136.779 51.5671 137.167 51.01 137.554 50.4512L136.32 49.5974L135.087 48.7436C134.704 49.2971 134.32 49.8486 133.934 50.3978L135.161 51.2598ZM137.465 47.9325L138.704 48.7786C139.086 48.2195 139.466 47.6591 139.844 47.0978L138.601 46.2592L137.357 45.4206C136.982 45.9771 136.605 46.5325 136.227 47.0865L137.465 47.9325ZM139.728 44.5775L140.976 45.4091C141.352 44.8447 141.726 44.2799 142.098 43.715L140.845 42.8902L139.592 42.0655C139.223 42.626 138.852 43.1863 138.479 43.746L139.728 44.5775ZM141.95 41.2022L143.207 42.0205C143.578 41.45 143.947 40.8799 144.314 40.3106L143.053 39.4986L141.792 38.6866C141.428 39.2518 141.061 39.8177 140.693 40.384L141.95 41.2022ZM144.143 37.7959L145.408 38.602C145.772 38.0314 146.133 37.4621 146.491 36.8946L145.222 36.0943L143.953 35.294C143.598 35.8578 143.239 36.4232 142.878 36.9899L144.143 37.7959ZM146.304 34.3705L147.576 35.1652C147.935 34.5908 148.291 34.0188 148.643 33.4495L147.367 32.6602L146.092 31.871C145.742 32.4367 145.388 33.0052 145.032 33.5759L146.304 34.3705ZM148.43 30.934L149.709 31.718C150.066 31.1355 150.42 30.5566 150.769 29.9817L149.487 29.2028L148.205 28.4239C147.858 28.9955 147.507 29.571 147.152 30.1499L148.43 30.934ZM150.522 27.4919L151.807 28.2658C152.164 27.673 152.517 27.0851 152.864 26.5028L151.576 25.7338L150.289 24.9648C149.943 25.5438 149.592 26.1284 149.237 26.7179L150.522 27.4919ZM152.602 24.0092L153.893 24.7735C154.244 24.1805 154.589 23.5941 154.929 23.0152L153.636 22.2556L152.343 21.496C152.004 22.0719 151.661 22.6551 151.311 23.2449L152.602 24.0092ZM154.656 20.5109L155.953 21.2659C156.298 20.6736 156.636 20.0904 156.967 19.5169L155.668 18.7665L154.37 18.016C154.04 18.5866 153.703 19.1668 153.36 19.756L154.656 20.5109ZM156.684 17.0021L157.985 17.7479C158.326 17.153 158.659 16.5703 158.982 16.001L157.678 15.2597L156.374 14.5183C156.052 15.0847 155.721 15.6643 155.382 16.2563L156.684 17.0021ZM158.684 13.4835L159.99 14.2203C160.332 13.6142 160.662 13.0262 160.98 12.4579L159.671 11.7258L158.362 10.9936C158.046 11.559 157.717 12.1438 157.377 12.7468L158.684 13.4835ZM160.652 9.9648L161.963 10.6922C162.314 10.0603 162.646 9.45915 162.958 8.89119L161.643 8.1688L160.328 7.44641C160.018 8.01112 159.688 8.60895 159.34 9.23739L160.652 9.9648ZM162.605 6.40965L163.923 7.12678C164.279 6.47236 164.598 5.88177 164.879 5.36091L163.558 4.64972L162.237 3.93852C161.959 4.45556 161.642 5.0422 161.288 5.69253L162.605 6.40965ZM164.537 2.81994L165.862 3.52304C166.005 3.2538 166.114 3.04731 166.187 2.90778C166.224 2.83801 166.252 2.78499 166.27 2.74924C166.28 2.73136 166.287 2.7178 166.292 2.70862C166.294 2.70403 166.296 2.70054 166.297 2.69815C166.298 2.69695 166.298 2.69604 166.299 2.69539C166.299 2.69507 166.299 2.69482 166.299 2.69464C166.299 2.69455 166.299 2.69447 166.299 2.69442C166.299 2.69439 166.299 2.69437 166.299 2.69435C166.299 2.69433 166.299 2.69432 166.299 2.69432C166.299 2.69431 166.299 2.6943 164.97 1.99999C163.64 1.30568 163.64 1.30567 163.64 1.30566C163.64 1.30566 163.64 1.30566 163.64 1.30566C163.64 1.30566 163.64 1.30566 163.64 1.30566C163.64 1.30568 163.64 1.30571 163.64 1.30575C163.64 1.30585 163.64 1.30601 163.64 1.30625C163.639 1.30672 163.639 1.30746 163.638 1.30848C163.637 1.31052 163.636 1.31366 163.633 1.3179C163.629 1.32638 163.622 1.33923 163.613 1.3564C163.595 1.39073 163.568 1.44231 163.532 1.51061C163.46 1.64721 163.353 1.85069 163.212 2.11683L164.537 2.81994Z" fill="#FF0ADA"/>
</svg>
